<svg width="196" height="26" viewBox="0 0 196 26" fill="none" xmlns="http://www.w3.org/2000/svg">
<path d="M184.728 15.9604C184.913 16.3487 185.107 16.7554 185.311 17.1807C185.514 17.5874 185.727 17.9942 185.949 18.401C186.189 18.7892 186.449 19.159 186.726 19.5103C187.004 19.8616 187.309 20.1574 187.642 20.3978C187.993 20.6566 188.345 20.8508 188.697 20.9802C189.066 21.0911 189.427 21.1466 189.779 21.1466C190.37 21.1466 190.861 21.0079 191.25 20.7306C191.657 20.4348 191.86 20.065 191.86 19.6212C191.86 19.3069 191.73 18.9741 191.472 18.6228C191.213 18.253 190.787 17.8925 190.195 17.5412C189.658 17.19 189.02 16.8479 188.28 16.5151C187.559 16.1638 186.865 15.7756 186.199 15.3503C185.533 14.9066 184.968 14.4074 184.506 13.8527C184.025 13.2796 183.785 12.6047 183.785 11.8282C183.785 11.181 183.941 10.5802 184.256 10.0255C184.552 9.47083 184.968 8.99937 185.505 8.61108C186.041 8.20433 186.689 7.89002 187.448 7.66816C188.206 7.4278 189.038 7.30762 189.946 7.30762H190.14C190.658 7.30762 191.12 7.35385 191.527 7.44628C191.952 7.53873 192.341 7.66815 192.693 7.83455C193.062 7.98246 193.415 8.15811 193.748 8.36148C194.081 8.56486 194.432 8.78677 194.802 9.0271L194.441 12.3551H193.942C193.701 11.8929 193.423 11.4122 193.109 10.913C192.813 10.3953 192.471 9.93303 192.082 9.5263C191.657 9.06411 191.222 8.74049 190.778 8.55563C190.334 8.35225 189.918 8.25055 189.529 8.25055C188.992 8.25055 188.548 8.39846 188.197 8.6943C187.864 8.99009 187.698 9.3599 187.698 9.80363C187.698 10.1364 187.817 10.497 188.058 10.8852C188.299 11.255 188.705 11.6248 189.279 11.9946C190.057 12.4753 190.88 12.9468 191.749 13.409C192.618 13.8527 193.451 14.3426 194.247 14.8788C194.728 15.2116 195.08 15.6092 195.302 16.0714C195.542 16.5336 195.662 17.0236 195.662 17.5412C195.662 18.5581 195.274 19.4548 194.497 20.2314C193.905 20.86 193.127 21.3777 192.166 21.7844C191.222 22.1727 190.168 22.3668 189.002 22.3668H188.808C187.753 22.3298 186.782 22.1265 185.894 21.7567C185.006 21.3869 184.229 21.0172 183.562 20.6474L184.201 15.9604H184.728Z" fill="#1e293b"/>
<path d="M177.32 8.02873C178.152 8.02873 178.883 8.22287 179.512 8.61113C180.16 8.99937 180.697 9.51712 181.122 10.1642C181.566 10.7929 181.899 11.5231 182.121 12.3551C182.343 13.1686 182.454 14.0099 182.454 14.8788C182.454 15.8033 182.325 16.7092 182.065 17.5967C181.825 18.4657 181.446 19.2515 180.927 19.954C180.41 20.6566 179.753 21.2206 178.957 21.6458C178.18 22.071 177.255 22.2836 176.182 22.2836C175.59 22.2836 175.053 22.2467 174.572 22.1727C174.11 22.0803 173.684 21.9878 173.296 21.8954C172.907 21.7844 172.546 21.6921 172.213 21.618C171.899 21.5257 171.584 21.4794 171.27 21.4794C170.956 21.4794 170.65 21.5441 170.354 21.6735C170.058 21.7844 169.725 21.9878 169.355 22.2836L168.938 21.9786L169.133 21.618V4.8394C169.133 4.30323 169.022 3.88723 168.8 3.5914C168.559 3.27709 168.319 3.11993 168.078 3.11993V2.62073C169.003 2.62073 169.929 2.5098 170.853 2.28793C171.797 2.06607 172.593 1.78873 173.24 1.45593L173.629 1.761V10.1364C174.054 9.50785 174.554 9.00865 175.127 8.63887C175.701 8.2506 176.367 8.04723 177.125 8.02873H177.32ZM175.377 21.3407C175.821 21.3407 176.21 21.1188 176.543 20.6751C176.876 20.2314 177.163 19.6582 177.403 18.9556C177.644 18.2531 177.819 17.4766 177.93 16.626C178.06 15.7571 178.124 14.8974 178.124 14.0468C178.124 13.4182 178.088 12.8174 178.013 12.2442C177.94 11.671 177.829 11.1626 177.68 10.7188C177.551 10.2751 177.375 9.92385 177.153 9.66497C176.95 9.38764 176.7 9.23051 176.404 9.19351H176.293C175.923 9.19351 175.59 9.36918 175.294 9.72044C174.998 10.0718 174.739 10.534 174.517 11.1071C174.295 11.6618 174.11 12.3089 173.962 13.0484C173.832 13.7695 173.74 14.5091 173.684 15.2671C173.666 15.489 173.648 15.7108 173.629 15.9327C173.629 16.1546 173.629 16.3673 173.629 16.5706C173.629 17.2177 173.666 17.8278 173.74 18.401C173.814 18.9742 173.916 19.4826 174.045 19.9263C174.193 20.3516 174.378 20.6937 174.6 20.9524C174.822 21.2113 175.081 21.3407 175.377 21.3407Z" fill="#1e293b"/>
<path d="M168.438 20.176C168.309 20.3609 168.161 20.5458 167.994 20.7306C167.846 20.897 167.699 21.0543 167.55 21.2021C167.254 21.4794 166.856 21.6921 166.357 21.84C165.876 21.9879 165.367 22.0618 164.83 22.0618C164.442 22.0618 164.063 22.0249 163.693 21.9509C163.322 21.8585 162.989 21.7199 162.694 21.5349C162.416 21.35 162.184 21.1189 162 20.8416C161.833 20.5642 161.75 20.2314 161.75 19.8432V19.1776C161.435 19.6583 161.066 20.102 160.64 20.5088C160.214 20.897 159.734 21.2207 159.197 21.4794C158.475 21.8122 157.744 21.9786 157.004 21.9786C156.505 21.9786 156.033 21.9047 155.589 21.7568C155.145 21.6089 154.756 21.3871 154.423 21.0912C154.072 20.7954 153.795 20.4348 153.591 20.0096C153.369 19.5844 153.258 19.0944 153.258 18.5397C153.258 18.133 153.332 17.7263 153.48 17.3194C153.609 16.8943 153.822 16.506 154.118 16.1546C154.396 15.7849 154.747 15.4521 155.173 15.1562C155.617 14.842 156.144 14.5924 156.755 14.4074C157.254 14.2596 157.772 14.1301 158.309 14.0192C158.846 13.9082 159.345 13.7788 159.807 13.6309C160.289 13.4831 160.695 13.2889 161.028 13.0485C161.38 12.8082 161.621 12.4754 161.75 12.0501V11.745C161.75 10.6912 161.593 9.94238 161.278 9.49864C160.963 9.03645 160.603 8.80531 160.196 8.80531C159.752 8.80531 159.326 9.02718 158.919 9.47091C158.513 9.91464 158.281 10.4879 158.225 11.1904V11.3568C158.225 11.5972 158.263 11.8745 158.336 12.1888C158.41 12.4847 158.54 12.688 158.725 12.7989C158.521 13.0578 158.235 13.2612 157.865 13.409C157.494 13.5385 157.097 13.6032 156.671 13.6032C156.357 13.6032 156.043 13.5663 155.728 13.4922C155.432 13.3999 155.163 13.2704 154.923 13.104C154.683 12.9191 154.488 12.688 154.34 12.4106C154.192 12.1148 154.118 11.7636 154.118 11.3568C154.118 10.7652 154.285 10.229 154.618 9.74824C154.951 9.26759 155.385 8.86078 155.922 8.52801C156.477 8.17673 157.097 7.90863 157.781 7.72374C158.485 7.53886 159.206 7.44641 159.946 7.44641H160.168C160.927 7.4649 161.667 7.56659 162.388 7.75148C163.128 7.91788 163.776 8.19521 164.331 8.58348C164.904 8.97171 165.367 9.48018 165.719 10.1088C166.07 10.7189 166.246 11.477 166.246 12.3829V19.7322C166.246 19.9911 166.311 20.176 166.44 20.2869C166.588 20.3978 166.755 20.4533 166.94 20.4533C167.143 20.4533 167.346 20.3978 167.55 20.2869C167.772 20.176 167.948 20.0188 168.077 19.8154L168.438 20.176ZM160.501 19.3162C160.723 19.1868 160.945 19.0112 161.167 18.7893C161.389 18.5674 161.583 18.2809 161.75 17.9296V13.4368C161.177 13.8066 160.566 14.241 159.918 14.7402C159.29 15.2394 158.762 15.7849 158.336 16.3765C157.985 16.8943 157.809 17.4119 157.809 17.9296C157.809 18.4103 157.948 18.817 158.225 19.1498C158.521 19.4826 158.91 19.649 159.391 19.649C159.742 19.649 160.113 19.5381 160.501 19.3162Z" fill="#1e293b"/>
<path d="M152.76 16.5982L151.706 21.9508H137.719V21.4238C137.978 21.4238 138.228 21.2667 138.468 20.9524C138.727 20.6196 138.857 20.1666 138.857 19.5934V4.14601C138.857 3.57284 138.727 3.12911 138.468 2.81481C138.228 2.48201 137.978 2.31561 137.719 2.31561V1.81641H144.962V2.31561C144.703 2.31561 144.444 2.48201 144.185 2.81481C143.945 3.12911 143.824 3.57284 143.824 4.14601V20.7028H144.407C145.24 20.7028 146.044 20.6658 146.821 20.5918C147.599 20.4994 148.32 20.3145 148.986 20.0372C149.67 19.7414 150.281 19.3161 150.818 18.7614C151.373 18.1883 151.835 17.4302 152.205 16.4873L152.76 16.5982Z" fill="#1e293b"/>
<path d="M129.003 20.0094C129.04 20.4716 129.169 20.8321 129.391 21.091C129.613 21.3499 129.826 21.4792 130.03 21.4792V21.9784H123.452V21.4792C123.693 21.4792 123.924 21.3221 124.146 21.0078C124.386 20.6934 124.507 20.2683 124.507 19.732V12.0776C124.507 11.2272 124.378 10.6355 124.118 10.3027C123.859 9.95146 123.545 9.77578 123.175 9.77578C122.897 9.77578 122.602 9.86826 122.287 10.0531C121.991 10.2195 121.713 10.4414 121.454 10.7187C121.195 10.996 120.982 11.3104 120.816 11.6616C120.649 11.9944 120.566 12.3272 120.566 12.66V19.8707C120.566 20.3515 120.677 20.7397 120.899 21.0355C121.139 21.3313 121.371 21.4792 121.593 21.4792V21.9784H115.016V21.4792C115.256 21.4792 115.497 21.3221 115.737 21.0078C115.959 20.6934 116.07 20.2683 116.07 19.732V10.8019C116.07 10.2657 115.959 9.84971 115.737 9.55392C115.515 9.23958 115.284 9.08245 115.043 9.08245V8.58326H115.46C116.292 8.58326 117.134 8.47232 117.985 8.25046C118.855 8.0101 119.577 7.73277 120.15 7.41846L120.566 7.72352V10.1086C121.158 9.33205 121.852 8.74965 122.647 8.36139C123.443 7.95464 124.229 7.75126 125.006 7.75126C125.524 7.75126 126.024 7.8437 126.505 8.02859C127.005 8.195 127.439 8.46309 127.809 8.83285C128.18 9.20266 128.475 9.66485 128.697 10.2195C128.919 10.7742 129.03 11.4213 129.03 12.1608C129.03 13.4736 129.021 14.7955 129.003 16.1267C129.003 17.4395 129.003 18.7336 129.003 20.0094Z" fill="#1e293b"/>
<path d="M110.489 19.4269C111.229 19.3344 111.858 19.0941 112.376 18.7058C112.894 18.3176 113.292 17.8923 113.569 17.4301L114.069 17.5965C113.791 18.2621 113.44 18.8815 113.014 19.4546C112.607 20.0093 112.117 20.4992 111.543 20.9245C110.97 21.3312 110.332 21.6548 109.628 21.8952C108.944 22.1355 108.185 22.2557 107.353 22.2557C106.354 22.2557 105.41 22.0616 104.522 21.6733C103.653 21.285 102.885 20.7581 102.219 20.0925C101.572 19.4084 101.062 18.6226 100.692 17.7352C100.304 16.8477 100.109 15.9048 100.109 14.9064C100.109 13.908 100.304 12.965 100.692 12.0776C101.062 11.1901 101.572 10.4136 102.219 9.74797C102.885 9.06391 103.653 8.5277 104.522 8.13943C105.41 7.73267 106.354 7.5293 107.353 7.5293C108.352 7.5293 109.277 7.73267 110.128 8.13943C110.98 8.5277 111.71 9.06391 112.32 9.74797C112.931 10.4136 113.412 11.1901 113.763 12.0776C114.116 12.965 114.291 13.908 114.291 14.9064H104.855C104.966 15.5165 105.152 16.0989 105.41 16.6536C105.669 17.2082 105.993 17.6982 106.381 18.1234C106.789 18.5302 107.269 18.863 107.824 19.1218C108.399 19.3622 109.055 19.4824 109.795 19.4824C109.906 19.4824 110.017 19.4824 110.128 19.4824C110.239 19.4639 110.359 19.4454 110.489 19.4269ZM109.767 13.9634C109.453 12.2255 109.009 10.9682 108.435 10.1917C107.862 9.39671 107.279 8.99917 106.687 8.99917C106.132 8.99917 105.651 9.33197 105.244 9.99757C104.837 10.6447 104.633 11.5784 104.633 12.7986C104.633 13.1684 104.661 13.5567 104.716 13.9634H109.767Z" fill="#1e293b"/>
<path d="M98.3473 19.7321C98.3473 20.2683 98.4583 20.6936 98.6803 21.0078C98.9024 21.3222 99.1339 21.4793 99.3741 21.4793V21.9785H92.7969V21.4793C93.0189 21.4793 93.2409 21.3406 93.4629 21.0633C93.6849 20.7675 93.8142 20.37 93.8515 19.8708V5.06119C93.8515 4.52502 93.7405 4.09977 93.5184 3.78546C93.2782 3.47115 93.0371 3.314 92.7969 3.314V2.8148C93.7222 2.8148 94.6467 2.71311 95.5721 2.50973C96.5157 2.28787 97.3023 2.01053 97.931 1.67773L98.3473 1.98279V19.7321Z" fill="#1e293b"/>
<path d="M90.8629 19.7322C90.8629 20.2684 90.9739 20.6937 91.1959 21.008C91.4179 21.3223 91.6495 21.4794 91.8897 21.4794V21.9786H85.3125V21.4794C85.5345 21.4794 85.7565 21.3408 85.9786 21.0634C86.2006 20.7676 86.33 20.3701 86.3671 19.8709V5.06132C86.3671 4.52514 86.2561 4.0999 86.0341 3.78558C85.7936 3.47128 85.553 3.31412 85.3125 3.31412V2.81492C86.2376 2.81492 87.1623 2.71323 88.0876 2.50985C89.0312 2.28799 89.8178 2.01066 90.4466 1.67786L90.8629 1.98291V19.7322Z" fill="#1e293b"/>
<path d="M77.4273 7.55713C78.4264 7.55713 79.37 7.75126 80.2581 8.13953C81.1461 8.50931 81.9139 9.02702 82.5615 9.69262C83.2275 10.3582 83.7456 11.1348 84.1156 12.0222C84.5041 12.9097 84.6984 13.8526 84.6984 14.851C84.6984 15.8494 84.5041 16.7924 84.1156 17.6798C83.7456 18.5487 83.2275 19.3161 82.5615 19.9817C81.9139 20.6473 81.1461 21.1742 80.2581 21.5625C79.37 21.9322 78.4264 22.1172 77.4273 22.1172C76.4283 22.1172 75.4847 21.9322 74.5966 21.5625C73.7085 21.1742 72.9315 20.6473 72.2654 19.9817C71.6178 19.3161 71.1091 18.5487 70.7391 17.6798C70.3505 16.7924 70.1562 15.8494 70.1562 14.851C70.1562 13.8526 70.3505 12.9097 70.7391 12.0222C71.1091 11.1348 71.6178 10.3582 72.2654 9.69262C72.9315 9.02702 73.7085 8.50931 74.5966 8.13953C75.4847 7.75126 76.4283 7.55713 77.4273 7.55713ZM77.4273 8.69422C77.0943 8.69422 76.7797 8.86062 76.4838 9.19342C76.1878 9.52622 75.9287 9.97914 75.7067 10.5524C75.4847 11.1255 75.3089 11.8004 75.1794 12.5769C75.0499 13.3534 74.9851 14.1761 74.9851 15.0452C74.9851 15.9326 75.0499 16.7646 75.1794 17.5412C75.3089 18.3177 75.4847 18.9925 75.7067 19.5657C75.9287 20.1388 76.1878 20.5918 76.4838 20.9246C76.7797 21.2574 77.0943 21.4238 77.4273 21.4238C77.7604 21.4238 78.0749 21.2574 78.3709 20.9246C78.6669 20.5918 78.926 20.1388 79.148 19.5657C79.37 18.9925 79.5458 18.3177 79.6753 17.5412C79.8047 16.7646 79.8695 15.9326 79.8695 15.0452C79.8695 14.1761 79.8047 13.3534 79.6753 12.5769C79.5458 11.8004 79.37 11.1255 79.148 10.5524C78.926 9.97914 78.6669 9.52622 78.3709 9.19342C78.0749 8.86062 77.7604 8.69422 77.4273 8.69422Z" fill="#1e293b"/>
<path d="M72.2824 2.316C72.1159 2.33449 71.9586 2.37146 71.8107 2.42693C71.6626 2.46391 71.5238 2.55636 71.3944 2.70426C71.2648 2.83369 71.1353 3.03707 71.0058 3.3144C70.8948 3.57324 70.7745 3.93378 70.6451 4.396L65.5942 21.9512H60.682L57.5183 12.0782L54.6875 21.9512H49.7754C48.8318 19.0115 47.8882 16.0902 46.9447 13.1875C46.0196 10.2662 45.0853 7.32649 44.1417 4.36826C43.9937 3.90604 43.8549 3.54551 43.7254 3.28667C43.5958 3.00933 43.4664 2.80596 43.3369 2.67654C43.2073 2.52862 43.0778 2.43618 42.9483 2.3992C42.8003 2.34373 42.6431 2.316 42.4766 2.316V1.78906H49.7754L49.8031 2.37146C49.5441 2.38996 49.3683 2.43618 49.2759 2.51013C49.1833 2.5656 49.1371 2.66729 49.1371 2.8152C49.1371 2.96311 49.1648 3.12951 49.2204 3.3144C49.2943 3.49929 49.3683 3.71191 49.4424 3.95227L53.966 18.0686L56.5469 9.08296L55.0483 4.36826C54.9003 3.90604 54.7615 3.54551 54.632 3.28667C54.5025 3.00933 54.373 2.80596 54.2435 2.67654C54.1139 2.52862 53.9752 2.43618 53.8272 2.3992C53.6976 2.34373 53.5497 2.316 53.3832 2.316V1.78906H60.682L60.7098 2.37146C60.4507 2.38996 60.2749 2.43618 60.1825 2.51013C60.0899 2.5656 60.0437 2.66729 60.0437 2.8152C60.0437 2.96311 60.0715 3.12951 60.127 3.3144C60.2009 3.49929 60.2749 3.71191 60.349 3.95227L64.8726 18.0686L68.9522 3.95227C69.0077 3.7304 69.0632 3.53626 69.1187 3.36986C69.1742 3.18498 69.2019 3.01858 69.2019 2.87066C69.2019 2.72276 69.1464 2.61182 69.0354 2.53787C68.9429 2.44542 68.7579 2.38996 68.4804 2.37146L68.4526 1.8168H72.2547L72.2824 2.316Z" fill="#1e293b"/>
<path d="M8.8089 4.58618H0V13.3891H8.8089V4.58618Z" fill="#1e293b"/>
<path d="M4.54688 20.5683L5.08431 12.5869L13.6268 4.60742L21.6318 4.60956L21.0944 12.5911L12.5519 20.5705L4.54688 20.5683Z" fill="#1e293b"/>
<path d="M17.3594 20.5681L17.8967 12.5866C17.8967 12.5866 23.4545 6.40282 26.4392 5.47388C29.424 4.54494 34.4442 4.60935 34.4442 4.60935L33.9068 12.5909L25.3643 20.5703L17.3594 20.5681Z" fill="#1e293b"/>
</svg>
